<svg width="25" height="25" viewBox="0 0 25 25" fill="none" xmlns="http://www.w3.org/2000/svg">
<path d="M20.2965 20.9936L13.774 14.4712C13.2532 14.9145 12.6543 15.2577 11.9772 15.5008C11.3001 15.7439 10.6197 15.8654 9.9359 15.8654C8.26749 15.8654 6.85547 15.2879 5.69983 14.1329C4.54417 12.9778 3.96634 11.5666 3.96634 9.89908C3.96634 8.23158 4.54385 6.81924 5.69886 5.66205C6.85388 4.50486 8.26514 3.92627 9.93264 3.92627C11.6002 3.92627 13.0125 4.50409 14.1697 5.65973C15.3269 6.81538 15.9055 8.22741 15.9055 9.89583C15.9055 10.6196 15.7773 11.3201 15.5208 11.9972C15.2644 12.6743 14.9279 13.2532 14.5112 13.734L21.0337 20.2564L20.2965 20.9936ZM9.9359 14.8237C11.3181 14.8237 12.485 14.348 13.4365 13.3964C14.388 12.4449 14.8638 11.278 14.8638 9.89583C14.8638 8.51362 14.388 7.34676 13.4365 6.39523C12.485 5.4437 11.3181 4.96794 9.9359 4.96794C8.55369 4.96794 7.38683 5.4437 6.4353 6.39523C5.48379 7.34676 5.00803 8.51362 5.00803 9.89583C5.00803 11.278 5.48379 12.4449 6.4353 13.3964C7.38683 14.348 8.55369 14.8237 9.9359 14.8237Z" fill="#EBF5FF"/>
</svg>
